<?xml version="1.0" encoding="UTF-8" standalone="no"?>
<svg width="84px" height="25px" viewBox="0 0 84 25" version="1.1" xmlns="http://www.w3.org/2000/svg" xmlns:xlink="http://www.w3.org/1999/xlink" xmlns:sketch="http://www.bohemiancoding.com/sketch/ns">
    <!-- Generator: Sketch Beta 3.4 (15009) - http://www.bohemiancoding.com/sketch -->
    <title>Page 1</title>
    <desc>Created with Sketch Beta.</desc>
    <defs>
        <path id="path-1" d="M0,0.0288461538 L83.7076031,0.0288461538 L83.7076031,25 L0,25"></path>
    </defs>
    <g id="Final" stroke="none" stroke-width="1" fill="none" fill-rule="evenodd" sketch:type="MSPage">
        <g id="Mobile" sketch:type="MSArtboardGroup" transform="translate(-678.000000, -134.000000)">
            <g id="Page-1" sketch:type="MSLayerGroup" transform="translate(678.000000, 134.000000)">
                <g id="Group-3">
                    <mask id="mask-2" sketch:name="Clip 2" fill="white">
                        <use xlink:href="#path-1"></use>
                    </mask>
                    <g id="Clip-2"></g>
                </g>
                <path d="M37.701829,16.9326923 C37.701829,15.9512821 37.3337679,15.2705128 36.5963634,14.8910256 C35.8602412,14.5121795 34.8778901,14.3224359 33.6505924,14.3224359 L30.4694931,14.3224359 L30.4694931,19.7448718 L33.6832947,19.7448718 C34.130226,19.7448718 34.5931878,19.7057692 35.0728214,19.6275641 C35.5530962,19.549359 35.9884855,19.4096154 36.3789893,19.2089744 C36.7694931,19.0083333 37.0875389,18.7237179 37.3337679,18.3557692 C37.5793557,17.9878205 37.701829,17.5134615 37.701829,16.9326923 M36.9317221,7.52692308 C36.9317221,6.72371795 36.6245771,6.13782051 36.0109282,5.76987179 C35.3966382,5.40128205 34.4873863,5.21730769 33.2818901,5.21730769 L30.4694931,5.21730769 L30.4694931,10.1044872 L33.5499206,10.1044872 C34.6214015,10.1044872 35.4524244,9.88717949 36.0442718,9.45192308 C36.6354779,9.01602564 36.9317221,8.375 36.9317221,7.52692308 M43.4279359,17.4685897 C43.4279359,18.7628205 43.1701649,19.8512821 42.657829,20.7320513 C42.1435695,21.6141026 41.4625924,22.3217949 40.6148977,22.8576923 C39.7665618,23.3929487 38.8008824,23.7782051 37.7185008,24.0128205 C36.6354779,24.2467949 35.5248824,24.3641026 34.3867145,24.3641026 L27.7911115,24.3641026 C26.2188366,24.3641026 24.9440885,23.0897436 24.9440885,21.5179487 L24.9440885,3.51089744 C24.9440885,1.93910256 26.2188366,0.66474359 27.7911115,0.66474359 L34.3867145,0.66474359 C35.3023786,0.66474359 36.2398443,0.76025641 37.1997527,0.949358974 C38.1590198,1.13910256 39.0291573,1.46282051 39.8114473,1.91987179 C40.592455,2.37820513 41.2285466,2.9974359 41.7203634,3.77820513 C42.2102565,4.55897436 42.4564855,5.55192308 42.4564855,6.75705128 C42.4564855,8.07435897 42.098684,9.16217949 41.3850046,10.0211538 C40.670684,10.8801282 39.7325771,11.4987179 38.5719664,11.8782051 L38.5719664,11.9455128 C39.2420427,12.0576923 39.8723634,12.2634615 40.4642107,12.5647436 C41.0547756,12.8660256 41.5690351,13.2512821 42.0044244,13.7192308 C42.4398137,14.1884615 42.7854321,14.7352564 43.0425618,15.3596154 C43.2990504,15.9846154 43.4279359,16.6878205 43.4279359,17.4685897 M19.6048305,19.3265385 C19.1245557,20.4976923 18.4378076,21.5021795 17.5452275,22.3387179 C16.6526473,23.1758974 15.5753954,23.8278205 14.314113,24.2970513 C13.0528305,24.765641 11.6524031,25.0002564 10.1115481,25.0002564 C8.54953282,25.0002564 7.14269313,24.765641 5.89295267,24.2970513 C4.64257099,23.8278205 3.58327328,23.1758974 2.71185344,22.3387179 C1.84171603,21.5021795 1.17228092,20.4976923 0.70290687,19.3265385 C0.234174046,18.1547436 0.000128244275,16.8553846 0.000128244275,15.4265385 L0.000128244275,3.50987179 C0.000128244275,1.93871795 1.27423511,0.665 2.8458687,0.665 L2.8458687,0.665 C4.41814351,0.665 5.69225038,1.93871795 5.69225038,3.50987179 L5.69225038,14.9585897 C5.69225038,15.6053846 5.77625038,16.2188462 5.94296794,16.7989744 C6.11096794,17.3797436 6.36681527,17.8983333 6.71371603,18.3553846 C7.05933435,18.8130769 7.51652519,19.1758974 8.08592977,19.4438462 C8.65533435,19.7111538 9.34208244,19.8451282 10.1455328,19.8451282 C10.9489832,19.8451282 11.6350901,19.7111538 12.2044947,19.4438462 C12.7738992,19.1758974 13.2368611,18.8130769 13.5940214,18.3553846 C13.9511817,17.8983333 14.2076702,17.3797436 14.3641282,16.7989744 C14.519945,16.2188462 14.5988153,15.6053846 14.5988153,14.9585897 L14.5988153,3.50987179 C14.5988153,1.93871795 15.8735634,0.665 17.4451969,0.665 L17.4785405,0.665 C19.050174,0.665 20.3242809,1.93871795 20.3242809,3.50987179 L20.3242809,15.4265385 C20.3242809,16.8553846 20.0844641,18.1547436 19.6048305,19.3265385 M47.2105649,21.4853205 L47.2105649,3.54365385 C47.2105649,1.95391026 48.5000611,0.664807692 50.0902901,0.664807692 L50.0902901,0.664807692 C51.6805191,0.664807692 52.969374,1.95391026 52.969374,3.54365385 L52.969374,21.4853205 C52.969374,23.0750641 51.6805191,24.3641667 50.0902901,24.3641667 L50.0902901,24.3641667 C48.5000611,24.3641667 47.2105649,23.0750641 47.2105649,21.4853205 M76.173829,12.2802564 C76.173829,11.2539744 76.0116,10.3052564 75.6884244,9.43538462 C75.3646076,8.56487179 74.9067756,7.8174359 74.3162107,7.1924359 C73.7243634,6.56807692 73.0151725,6.08217949 72.1892794,5.73602564 C71.3633863,5.39051282 70.4592641,5.21679487 69.4775542,5.21679487 C68.5176458,5.21679487 67.6301954,5.39051282 66.8152031,5.73602564 C66.0002107,6.08217949 65.2916611,6.56807692 64.6895542,7.1924359 C64.0861649,7.8174359 63.6174321,8.56487179 63.2827145,9.43538462 C62.9479969,10.3052564 62.7806382,11.2539744 62.7806382,12.2802564 C62.7806382,13.3514103 62.942226,14.3276923 63.2660427,15.2091026 C63.5892183,16.0905128 64.0470504,16.8494872 64.6388977,17.4853846 C65.2301038,18.1212821 65.9328824,18.6123077 66.748516,18.9578205 C67.5628672,19.3039744 68.4612183,19.4770513 69.4435695,19.4770513 C70.4034779,19.4770513 71.2966992,19.3039744 72.1225924,18.9578205 C72.9484855,18.6123077 73.6628061,18.1212821 74.264913,17.4853846 C74.8683023,16.8494872 75.3363939,16.0905128 75.6717527,15.2091026 C76.0064702,14.3276923 76.173829,13.3514103 76.173829,12.2802564 L76.173829,12.2802564 Z M69.2762107,24.3642308 C67.4012794,24.3642308 65.6821649,24.0962821 64.1201496,23.5610256 C62.5574931,23.0251282 61.2237527,22.2385897 60.1189282,21.2007692 C59.0134626,20.1629487 58.1535847,18.8911538 57.5399359,17.3847436 C56.926287,15.8783333 56.6197832,14.1546154 56.6197832,12.2135897 C56.6197832,10.4052564 56.9429588,8.75461538 57.5912336,7.25910256 C58.2375847,5.76423077 59.1365771,4.48089744 60.286287,3.40974359 C61.4359969,2.33858974 62.7973099,1.50717949 64.3715084,0.915512821 C65.9450656,0.325128205 67.6468672,0.028974359 69.4775542,0.028974359 C71.3069588,0.028974359 73.0042718,0.325128205 74.5669282,0.915512821 C76.1289435,1.50717949 77.4799969,2.33346154 78.6188061,3.39307692 C79.756974,4.45333333 80.6444244,5.72512821 81.280516,7.20910256 C81.9166076,8.69307692 82.2346534,10.3276923 82.2346534,12.1123077 C82.2346534,13.0283333 82.1339817,13.8815385 81.9326382,14.6732051 C81.7319359,15.4661538 81.4645466,16.1853846 81.129829,16.8328205 C80.7944702,17.4796154 80.4148672,18.0546154 79.9910198,18.5565385 C79.5665313,19.0584615 79.142684,19.4770513 78.7188366,19.8116667 L78.7188366,19.9116667 L81.4081191,19.8578205 C82.670684,19.8321795 83.7075389,20.8482051 83.7075389,22.1103846 C83.7075389,23.3552564 82.6982565,24.3642308 81.4536458,24.3642308 L69.2762107,24.3642308 Z" id="Fill-4" fill="#FFFFFF" sketch:type="MSShapeGroup"></path>
            </g>
        </g>
    </g>
</svg>